<?xml version="1.0" encoding="iso-8859-1"?>
<!-- Generator: Adobe Illustrator 27.0.0, SVG Export Plug-In . SVG Version: 6.00 Build 0)  -->
<svg version="1.1" id="Layer_1" xmlns="http://www.w3.org/2000/svg"
	xmlns:xlink="http://www.w3.org/1999/xlink" x="0px" y="0px"
	viewBox="0 0 500 500" style="enable-background:new 0 0 500 500;" xml:space="preserve">

<g>
</g>
<g>
	<g>
		<path style="fill-rule:evenodd;clip-rule:evenodd;fill:#13017C;" d="M55.647,158.264h122.382c8.524,0,15.627,3.044,21.513,8.93
			c6.089,5.886,9.133,13.192,9.133,21.716v122.382c0,8.322-3.044,15.628-9.133,21.513c-5.886,5.886-12.989,8.93-21.513,8.93H55.647
			c-8.524,0-15.83-3.044-21.716-8.93C28.044,326.92,25,319.614,25,311.292V188.91c0-8.524,3.044-15.83,8.93-21.716
			C39.816,161.308,47.123,158.264,55.647,158.264L55.647,158.264z"/>
		<path style="fill-rule:evenodd;clip-rule:evenodd;fill:#FFFF01;" d="M165.243,262.38h9.944L187.365,250H173.97L165.243,262.38
			L165.243,262.38z M161.59,265.425h-14.207v26.587c0,7.104,1.827,12.381,5.277,15.831c3.044,3.045,7.104,4.465,12.177,4.465
			c7.104,0,12.38-2.842,15.628-8.321h0.203v7.306h12.584v-45.868h-14.207v26.79c0,1.218-0.203,2.232-0.406,2.841
			c-1.624,3.857-4.465,5.886-8.727,5.886c-5.48,0-8.321-3.856-8.321-11.366V265.425L161.59,265.425z M125.058,280.647
			c-9.336,0-16.44,1.42-21.311,4.465c-5.074,3.044-7.713,7.509-7.713,13.395c0,3.653,1.421,6.9,4.059,9.539
			c3.044,2.841,6.9,4.262,11.569,4.262c6.291,0,10.96-2.03,14.207-5.886h0.406v4.871h12.989V284.3
			c0-6.089-1.624-10.757-4.668-14.207c-3.653-3.856-9.133-5.886-16.439-5.886c-7.509,0-13.801,1.421-18.672,4.465l2.638,8.931
			c4.059-2.435,8.524-3.653,13.598-3.653c6.292,0,9.336,2.03,9.336,6.291V280.647L125.058,280.647z M90.352,265.425h-8.727V250
			H67.824v15.425h-6.495v10.554h6.495v18.469c0,6.292,1.218,10.96,3.856,13.599c2.638,2.841,6.495,4.262,11.162,4.262
			c3.044,0,5.48-0.406,7.712-1.218l-0.203-10.757c-0.406,0.406-1.218,0.609-2.639,0.609c-2.232,0-3.856-0.812-4.871-2.435
			c-0.812-1.218-1.218-3.247-1.218-6.291v-16.237h8.727V265.425L90.352,265.425z M109.227,297.289c0-5.48,5.48-7.915,16.236-7.713
			v4.871l-0.203,2.639c-0.609,1.826-1.826,3.247-3.45,4.262c-1.623,1.421-3.653,2.03-5.885,2.03
			C111.459,303.378,109.227,301.348,109.227,297.289L109.227,297.289z M40.222,250v61.293h14.41V250H40.222L40.222,250z"/>
	</g>
	<g>
		<path style="fill:#FC470C;" d="M229.827,297.343c2.703,1.857,7.03,3.326,11.221,3.326c5.542,0,8.45-3.016,8.45-7.424
			c0-4.254-2.501-6.807-8.247-9.669c-7.842-3.866-12.708-9.435-12.708-17.17c0-9.744,6.692-17.247,17.913-17.247
			c4.935,0,8.72,1.315,11.153,2.707l-2.095,9.359c-1.826-1.084-5.002-2.553-9.261-2.553c-5.273,0-7.639,3.249-7.639,6.574
			c0,4.254,2.569,6.188,8.923,9.513c8.314,4.254,12.032,9.744,12.032,17.556c0,10.363-6.828,17.943-18.927,17.943
			c-5.138,0-10.342-1.624-12.776-3.326L229.827,297.343z"/>
		<path style="fill:#FC470C;" d="M274.171,291.388c0.269,7.347,4.867,10.286,10.275,10.286c3.717,0,6.624-0.773,9.193-1.778
			l1.419,7.889c-3.109,1.547-7.503,2.474-12.167,2.474c-11.627,0-18.251-8.353-18.251-21.733c0-12.374,6.218-23.047,17.237-23.047
			c9.125,0,15.073,7.424,15.073,21.345c0,1.701-0.067,3.326-0.269,4.563H274.171z M287.69,283.422
			c0.067-4.487-1.486-9.977-6.422-9.977c-4.799,0-6.828,5.723-7.097,9.977H287.69z"/>
		<path style="fill:#FC470C;" d="M327.437,266.484h8.72c-0.202,3.093-0.338,6.884-0.338,12.839v24.285
			c0,8.431-0.675,24.054-18.995,24.054c-4.394,0-8.922-1.005-11.896-2.939l1.959-8.739c2.23,1.392,5.747,2.784,9.735,2.784
			c5.611,0,9.327-3.635,9.327-11.911v-3.172h-0.135c-1.892,3.404-5.272,5.492-9.396,5.492c-8.922,0-14.532-9.204-14.532-20.959
			c0-14.232,7.232-22.662,15.547-22.662c4.732,0,7.774,2.63,9.464,6.032h0.135L327.437,266.484z M325.814,283.189
			c0-5.49-2.907-8.662-6.286-8.662c-4.53,0-7.572,5.259-7.572,13.381c0,7.501,2.771,12.607,7.503,12.607
			c2.299,0,6.355-1.701,6.355-8.971V283.189z"/>
		<path style="fill:#FC470C;" d="M376.648,266.406v29.932c0,5.105,0.202,9.513,0.338,13.148h-8.72l-0.475-5.723h-0.202
			c-1.555,2.784-5.003,6.574-10.815,6.574c-7.166,0-12.032-5.338-12.032-18.254v-25.678h10.004v23.977
			c0,6.497,1.623,10.596,5.747,10.596c3.244,0,6.151-3.17,6.151-8.043v-26.529H376.648z"/>
		<path style="fill:#FC470C;" d="M394.696,273.909c1.757-5.569,5.814-8.429,9.329-8.429c0.946,0,1.554,0.077,2.23,0.231v10.905
			c-0.744-0.154-1.555-0.231-2.569-0.231c-4.528,0-7.976,3.48-7.976,10.827v22.275h-10.006v-29.623c0-5.336-0.135-9.59-0.269-13.458
			h8.585l0.406,7.503H394.696z"/>
		<path style="fill:#FC470C;" d="M444.649,287.599c0,16.396-9.193,22.739-17.574,22.739c-10.14,0-17.441-8.199-17.441-22.199
			c0-14.463,7.639-22.66,17.847-22.66C438.025,265.479,444.649,274.527,444.649,287.599z M427.277,273.909
			c-5.543,0-7.503,7.426-7.503,14c0,7.657,2.569,13.998,7.435,13.998c4.732,0,7.301-6.419,7.301-14.077
			C434.511,281.102,432.415,273.909,427.277,273.909z"/>
		<path style="fill:#FC470C;" d="M451.477,299.123c1.959,1.315,5.678,2.861,8.787,2.861c3.515,0,5.205-1.701,5.205-4.331
			s-1.284-4.022-5.409-6.032c-7.03-3.249-9.598-7.812-9.598-12.53c0-7.735,5.409-13.612,13.79-13.612
			c3.853,0,7.166,1.082,9.329,2.397l-1.894,8.043c-1.623-1.005-4.259-2.243-7.097-2.243c-3.042,0-4.665,1.78-4.665,4.1
			c0,2.397,1.419,3.635,5.745,5.723c6.355,3.016,9.329,7.193,9.329,13.148c0,8.199-5.409,13.612-14.803,13.612
			c-4.124,0-8.112-1.159-10.613-2.861L451.477,299.123z"/>
	</g>
</g>
</svg>