<svg class="NewHeader__LogoProtector-sc-a75ug2-1 cQWrRh" width="205" height="39" fill="none"
    xmlns="http://www.w3.org/2000/svg">
    <path fill-rule="evenodd" clip-rule="evenodd"
        d="M5.23 33.26c.07.64-.09 1.28-.45 1.82a1.97 1.97 0 0 1-1.49.47c-.36.02-.71-.07-1.03-.24-.27-.14-.48-.39-.6-.68-.13-.44-.2-.9-.17-1.37v-4.13H.54v4.13c-.02.61.07 1.22.28 1.8.17.43.5.78.91 1 .51.25 1.08.37 1.65.34.58.03 1.16-.1 1.67-.4.4-.23.7-.6.88-1.03.18-.55.27-1.13.24-1.71v-4.13h-.94zm3.29 3.03v-2.7c-.02-.36.03-.73.14-1.08.08-.23.24-.44.46-.57.2-.13.44-.2.68-.2a.81.81 0 0 1 .7.3c.16.26.24.56.22.87v3.38h.88v-3.01c-.04-.42.1-.84.36-1.17a1.23 1.23 0 0 1 .9-.36c.2 0 .38.04.54.14.14.09.25.22.3.37.08.25.1.5.1.76v3.27h.87v-3.56c.04-.48-.11-.95-.42-1.32a1.58 1.58 0 0 0-1.19-.43 1.86 1.86 0 0 0-1.6.91c-.09-.27-.27-.51-.52-.67a1.7 1.7 0 0 0-.94-.24 1.83 1.83 0 0 0-1.57.85v-.73h-.79v5.19zm11.1 1.99v-2.53c.16.2.36.35.58.47.24.12.51.19.79.18a2.16 2.16 0 0 0 1.98-1.32c.19-.44.29-.93.28-1.43 0-.46-.08-.93-.26-1.36a2.05 2.05 0 0 0-1.94-1.3c-.3-.01-.6.05-.86.2-.26.14-.48.34-.64.59v-.68h-.8v7.18h.88zm.35-6.08a1.27 1.27 0 0 1 1-.53c.384.006.742.191.97.5.3.43.45.95.41 1.48.04.55-.1 1.09-.42 1.54a1.27 1.27 0 0 1-1.54.37c-.17-.08-.32-.2-.44-.35-.3-.43-.45-.96-.4-1.48a2.3 2.3 0 0 1 .42-1.53zm5.2 4.09v-2.71c0-.35.05-.7.15-1.03a.95.95 0 0 1 .33-.48.83.83 0 0 1 .52-.17c.22 0 .45.07.64.19l.3-.82a1.71 1.71 0 0 0-.9-.28c-.2 0-.4.06-.56.17-.24.2-.43.45-.56.73v-.79h-.79v5.19h.88zm2.81-.58a2.33 2.33 0 0 0 1.76.7c.44 0 .87-.11 1.26-.32.37-.2.68-.52.87-.9.23-.49.33-1.03.3-1.57a2.66 2.66 0 0 0-.68-1.94 2.33 2.33 0 0 0-1.74-.7c-.6-.01-1.18.2-1.63.58a2.68 2.68 0 0 0-.8 2.13c-.06.74.18 1.46.66 2.01zm.67-3.5a1.45 1.45 0 0 1 2.18 0c.32.41.47.93.43 1.45.05.55-.1 1.09-.43 1.52a1.44 1.44 0 0 1-2.18 0 2.77 2.77 0 0 1 0-2.98zm8.73 4.08v-7.16h-.88v2.57a1.75 1.75 0 0 0-1.43-.72 2.04 2.04 0 0 0-1.93 1.3 3.68 3.68 0 0 0 .02 2.82c.17.4.45.72.8.96a2.03 2.03 0 0 0 1.97.15c.26-.13.47-.33.62-.58v.66h.82zm-3.2-4.1a1.22 1.22 0 0 1 .98-.48 1.26 1.26 0 0 1 1 .5c.32.46.46 1.01.42 1.56.04.51-.1 1.02-.4 1.44a1.24 1.24 0 0 1-1.97-.02 2.25 2.25 0 0 1-.42-1.49c-.05-.53.1-1.07.39-1.51zm8.76 4.1V31.1h-.87v2.78c.01.34-.04.68-.15 1-.1.24-.27.44-.49.56-.22.13-.48.2-.74.2-.24 0-.47-.06-.67-.2a.91.91 0 0 1-.35-.54 5.8 5.8 0 0 1-.05-.93V31.1h-.88v3.21c0 .28.01.55.05.82.05.24.14.46.27.66.16.2.36.35.6.44a2.1 2.1 0 0 0 1.8-.05c.28-.15.52-.38.7-.66v.77zm2.91-.75c-.1 0-.2-.02-.3-.07a.37.37 0 0 1-.15-.17 1.53 1.53 0 0 1-.04-.48v-3.04h.88v-.68h-.88v-1.8l-.88.53v1.28h-.64v.68h.64v2.99c-.02.35.02.7.11 1.03.08.18.2.32.37.4.23.12.49.17.74.16.23 0 .45-.03.67-.08l-.13-.78-.38.04zm1.6.17a2.33 2.33 0 0 0 1.75.7c.44 0 .87-.1 1.26-.32.37-.2.67-.51.87-.89.22-.5.33-1.03.3-1.58a2.67 2.67 0 0 0-.68-1.93 2.33 2.33 0 0 0-1.75-.7c-.6-.02-1.17.19-1.63.57a2.67 2.67 0 0 0-.8 2.14c-.05.73.2 1.45.68 2zm.66-3.5a1.45 1.45 0 0 1 2.18 0c.32.41.48.93.44 1.45.04.55-.11 1.09-.44 1.52a1.45 1.45 0 0 1-2.18 0 2.78 2.78 0 0 1 0-2.98z"
        fill="#9b9b9b"></path>
    <path fill-rule="evenodd" clip-rule="evenodd"
        d="M6.38 4.1h3.4c1.88 0 2.81.81 2.81 2.42.06.69-.18 1.37-.66 1.87-.6.44-1.34.65-2.09.6H6.38V4.1zm0 16.27V13.1h4.25c2.31 0 4.07-.58 5.28-1.73 1.22-1.15 1.82-2.81 1.82-4.98 0-2.08-.61-3.66-1.84-4.75C14.66.54 12.85 0 10.46 0H1.12v20.37h5.25zm18.93 0v-5.04c0-1.04.03-1.9.09-2.6.02-.55.16-1.1.42-1.6.57-.92 1.6-1.38 3.07-1.38.4 0 .82.03 1.22.08V4.96a5.92 5.92 0 0 0-3 .74 5.42 5.42 0 0 0-1.97 2.26V5.33H20.4v15.04h4.91zm14.2-11.81c.86-.04 1.68.37 2.17 1.08.59.95.86 2.06.78 3.18a5.48 5.48 0 0 1-.78 3.2 2.52 2.52 0 0 1-2.17 1.1 2.48 2.48 0 0 1-2.16-1.1 5.56 5.56 0 0 1-.76-3.2c-.08-1.11.19-2.22.76-3.18a2.5 2.5 0 0 1 2.16-1.08zm-5.88 10.18c.71.71 1.57 1.25 2.52 1.59 2.18.74 4.54.74 6.73 0a6.74 6.74 0 0 0 4.1-4.12c.72-2.2.72-4.56 0-6.75a6.74 6.74 0 0 0-4.1-4.12 9.63 9.63 0 0 0-3.37-.55 9.51 9.51 0 0 0-3.35.55 6.76 6.76 0 0 0-4.09 4.1 10.9 10.9 0 0 0 0 6.78c.33.94.86 1.8 1.56 2.52zM50.61 8.3v5.84c0 1 .04 2 .14 3 .06.72.27 1.41.61 2.04.31.53.79.94 1.35 1.16.76.28 1.56.4 2.36.37 1 0 1.98-.1 2.95-.3v-3.15l-.33.02h-.3c-.77 0-1.27-.18-1.5-.55-.27-.6-.39-1.25-.34-1.91V8.3h2.53V5.33h-2.53V1.08h-4.94v4.25H48.6V8.3h2.01zm14.68.64c.5-.52 1.2-.8 1.93-.78.76-.04 1.5.26 2.03.8.54.65.81 1.46.78 2.29H64.4a3.8 3.8 0 0 1 .89-2.31zm1.96 8.34c-1.8 0-2.7-1.08-2.7-3.26h10.2l.02-.43v-.44c.02-1.2-.16-2.38-.54-3.52a6.62 6.62 0 0 0-3.95-4.25 8.6 8.6 0 0 0-3.2-.56 8.4 8.4 0 0 0-3.13.55c-.9.35-1.72.9-2.38 1.6a7.09 7.09 0 0 0-1.54 2.55 10 10 0 0 0-.54 3.4 9.7 9.7 0 0 0 .53 3.3 6.63 6.63 0 0 0 3.9 4.05c1 .39 2.08.57 3.15.56a8.3 8.3 0 0 0 4.86-1.35 6.5 6.5 0 0 0 2.58-3.84h-4.74c-.34 1.1-1.18 1.64-2.52 1.64zm16.83-.3c-1.7 0-2.55-1.38-2.55-4.12 0-2.87.87-4.3 2.6-4.3 1.17 0 1.9.7 2.18 2.1h4.96a6.59 6.59 0 0 0-.67-2.46 5.88 5.88 0 0 0-3.63-3.01 9.38 9.38 0 0 0-2.82-.4 8.6 8.6 0 0 0-3.18.57 6.71 6.71 0 0 0-3.99 4.2c-.37 1.11-.55 2.28-.53 3.45a9.32 9.32 0 0 0 .52 3.2 6.7 6.7 0 0 0 3.85 4.08 8 8 0 0 0 3.08.56c1.81.09 3.6-.47 5.04-1.58a6.62 6.62 0 0 0 2.3-4.48H86.4c-.28 1.45-1.06 2.18-2.33 2.18zM94.2 8.3v5.84c0 1 .04 2 .14 3 .06.72.27 1.41.61 2.04.31.53.78.94 1.35 1.16.76.28 1.56.4 2.36.37.99 0 1.98-.1 2.95-.3v-3.15l-.33.02h-.3c-.77 0-1.27-.18-1.5-.55-.27-.6-.39-1.25-.34-1.91V8.3h2.53V5.33h-2.53V1.08H94.2v4.25h-2.01V8.3h2.01zm16.86.26c.87-.04 1.69.37 2.18 1.08.58.95.85 2.06.78 3.18a5.48 5.48 0 0 1-.78 3.2 2.52 2.52 0 0 1-2.18 1.1 2.48 2.48 0 0 1-2.15-1.1 5.55 5.55 0 0 1-.77-3.2c-.07-1.11.2-2.22.77-3.18a2.5 2.5 0 0 1 2.15-1.08zm-5.87 10.18c.7.71 1.56 1.25 2.51 1.59 2.18.74 4.55.74 6.73 0a6.74 6.74 0 0 0 4.1-4.12c.72-2.2.72-4.56 0-6.75a6.74 6.74 0 0 0-4.1-4.12 9.63 9.63 0 0 0-3.36-.55 9.51 9.51 0 0 0-3.36.55 6.77 6.77 0 0 0-4.09 4.1 10.9 10.9 0 0 0 0 6.78c.34.94.87 1.8 1.57 2.52zm21.4 1.63v-5.04c0-1.04.03-1.9.09-2.6.02-.55.17-1.1.43-1.6.56-.92 1.59-1.38 3.06-1.38.41 0 .82.03 1.22.08V4.96a5.92 5.92 0 0 0-3 .74 5.42 5.42 0 0 0-1.97 2.26V5.33h-4.74v15.04h4.91z"
        fill="#1F52D4"></path>
    <g style="-inkscape-font-specification:kessel" font-size="11.438" font-family="kessel"
        letter-spacing="1" fill="#9b9b9b" stroke-width=".777">
        <path
            d="M64.99 36.356l-4.42-7.791-4.425 7.79h1.764l.668-1.249 3.968-.03.687 1.28zm-4.395-4.934l1.356 2.55-2.78.02 1.375-2.57zM68.834 36.356v-1.96l.76-.787 2.6 2.747h1.925l-3.583-3.735 3.583-3.749h-1.924l-3.361 3.533v-3.533H67.26v7.484zM84.58 36.356l-4.42-7.791-4.425 7.79H77.5l.669-1.249 3.967-.03.687 1.28zm-4.394-4.934l1.355 2.55-2.78.02 1.375-2.57zM90.442 36.356c1.281 0 2.346-.358 3.194-1.079.848-.72 1.268-1.607 1.268-2.66 0-1.054-.42-1.94-1.268-2.661-.848-.721-1.913-1.084-3.194-1.084h-3.59v7.484zm2.042-1.87c-.532.504-1.213.756-2.042.756h-2.018v-5.256h2.018c.83 0 1.51.252 2.042.756.533.509.799 1.134.799 1.874 0 .746-.266 1.371-.799 1.87zM108.256 29.552c-.885-.559-1.925-.836-3.12-.836-.903 0-1.665.201-2.29.6-.625.403-.94.922-.94 1.562 0 .479.13.877.383 1.184.254.308.57.52.947.635.378.116.792.212 1.232.292.44.086.848.152 1.225.197.378.05.7.156.954.322a.772.772 0 0 1 .377.68c0 .359-.173.65-.526.878-.353.226-.805.342-1.362.342-.489 0-.965-.075-1.417-.226-.458-.152-.836-.348-1.133-.59l-.835.957c.928.65 2.055.973 3.385.973.985 0 1.808-.217 2.47-.645.662-.428.99-.993.99-1.688 0-.413-.093-.761-.284-1.048a1.813 1.813 0 0 0-.737-.645 5.18 5.18 0 0 0-1.003-.353c-.73-.177-1.504-.252-2.098-.393-.6-.136-1.015-.414-.996-.872.006-.313.167-.565.47-.756.303-.192.7-.287 1.188-.287.88 0 1.647.221 2.297.66zM112.793 33.166h4.06v-1.114h-4.06v-2.066h4.908v-1.114h-6.48v7.484h6.48v-1.114h-4.908zM124.789 32.052v1.114h2.005v1.592a3.425 3.425 0 0 1-2.005.64c-.953 0-1.758-.272-2.414-.811-.656-.54-.984-1.2-.984-1.97 0-.772.328-1.427.984-1.971.656-.54 1.46-.811 2.414-.811.879 0 1.646.277 2.308.836l1.053-.836c-.96-.746-2.08-1.12-3.361-1.12-1.405 0-2.588.379-3.56 1.14-.971.76-1.46 1.683-1.46 2.761 0 1.084.489 2.001 1.46 2.757.972.761 2.155 1.139 3.56 1.139 1.368 0 2.562-.438 3.577-1.31v-3.15zM136.951 28.872v4.863c0 .494-.198.892-.594 1.2-.396.307-.891.463-1.48.463-.593 0-1.088-.156-1.485-.463-.402-.308-.6-.706-.6-1.2v-4.863h-1.572v4.863c0 .847.34 1.522 1.021 2.021.681.504 1.56.756 2.63.756 1.072 0 1.95-.252 2.631-.756.681-.499 1.022-1.174 1.022-2.02v-4.864zM148.514 31.372c0-.716-.31-1.31-.923-1.79-.618-.473-1.374-.71-2.271-.71h-3.868v7.484h1.572v-2.49h1.956l1.522 2.49h1.758l-1.684-2.671c.582-.197 1.053-.5 1.405-.907a2.09 2.09 0 0 0 .533-1.406zm-2.08.972c-.303.272-.675.409-1.114.409h-2.296v-2.767h2.296c.44 0 .817.136 1.12.408.304.272.452.595.452.973s-.155.705-.458.977zM152.296 35.373c.972.761 2.154 1.139 3.559 1.139 1.405 0 2.593-.378 3.565-1.139.972-.756 1.455-1.673 1.455-2.757 0-1.078-.483-2-1.455-2.761-.972-.761-2.16-1.14-3.565-1.14-1.405 0-2.587.379-3.56 1.14-.97.76-1.46 1.683-1.46 2.761 0 1.084.49 2.001 1.46 2.757zm1.145-4.727c.656-.54 1.46-.811 2.42-.811.953 0 1.758.272 2.414.811.65.544.978 1.2.978 1.97 0 .772-.328 1.432-.978 1.97-.656.54-1.46.812-2.414.812-.96 0-1.764-.272-2.42-.811-.656-.54-.984-1.2-.984-1.97 0-.772.328-1.427.984-1.971zM169.701 29.552c-.885-.559-1.925-.836-3.12-.836-.903 0-1.664.201-2.29.6-.625.403-.94.922-.94 1.562 0 .479.13.877.383 1.184.254.308.57.52.947.635.378.116.793.212 1.232.292.44.086.848.152 1.226.197.377.05.699.156.953.322a.772.772 0 0 1 .377.68c0 .359-.173.65-.526.878-.353.226-.804.342-1.361.342-.49 0-.966-.075-1.418-.226-.458-.152-.835-.348-1.133-.59l-.835.957c.928.65 2.055.973 3.386.973.984 0 1.807-.217 2.47-.645.661-.428.99-.993.99-1.688 0-.413-.093-.761-.285-1.048a1.813 1.813 0 0 0-.737-.645 5.18 5.18 0 0 0-1.002-.353c-.73-.177-1.505-.252-2.099-.393-.6-.136-1.015-.414-.996-.872.006-.313.167-.565.47-.756.303-.192.7-.287 1.189-.287.878 0 1.646.221 2.296.66z"
            style="-inkscape-font-specification:&#x27;Kessel 105 Text Bold&#x27;"></path>
    </g>
</svg>