<?xml version="1.0" encoding="UTF-8"?>
<svg version="1.1" viewBox="0 0 2048 443" width="1280" height="1280"
    xmlns="http://www.w3.org/2000/svg">
    <path transform="translate(249)"
        d="m0 0h21l24 3 20 5 19 7 16 8 15 9 14 11 12 11 7 7 11 14 7 10 9 16 7 15 6 18 4 17 2 15v36l-4 24-6 20-8 19-10 18-10 14-9 10-7 8-12 11-18 13-13 8-8 14-10 13-9 10-7 8-8 7-17 13-15 9-19 9-21 7-19 4-19 2h-21l-24-3-20-5-21-8-21-11-14-10-10-8-13-12-7-8-10-13-10-16-8-16-6-15-6-23-3-22v-28l3-22 5-19 7-19 12-23 10-14 9-11 18-18 13-10 16-10 5-4 7-12 12-16 11-12 10-10 17-13 13-8 16-8 14-6 22-6 18-3zm0 33-21 3-15 4-16 6-17 9-14 10-14 12 4 1 22-2 26 1 23 4 20 6 21 9 17 10 16 12 10 9 12 12 13 17 10 17 9 19 7 22 4 22 1 10v26l-2 19 7-6 12-15 9-15 8-17 6-20 3-18v-33l-3-17-6-20-7-15-9-16-13-16-15-15-15-11-18-10-15-6-18-5-21-3z"
        fill="#AB001C" />
    <path transform="translate(178,75)"
        d="m0 0 26 1 23 4 20 6 21 9 17 10 16 12 10 9 13 13 13 17 10 17 9 19 7 22 4 22 1 10v26l-2 17-3 5-10 9-13 9-16 9-18 7-20 5-18 2h-17l-18-2-20-5-20-8-16-9-12-9-10-9-12-12-11-15-10-18-7-18-4-16-2-13v-34l4-22 6-18 8-16 7-12 10-13 6-7 6-2z"
        fill="#AB001C" />
    <path transform="translate(1154,116)"
        d="m0 0h66l18 46 22 56 18 46 20 51 13 33 2-3 17-43 22-56 18-46 20-51 13-33h66v279h-42l-1-238-19 48-42 107-22 56-10 26-1 1h-41l-5-12-19-48-66-168-4-10v-3h-2l1 241h-42z"
        fill="#fff" />
    <path transform="translate(249)"
        d="m0 0h21l24 3 20 5 19 7 16 8 15 9 14 11 12 11 7 7 11 14 7 10 9 16 7 15 6 18 4 17 2 15v36l-4 24-6 20-8 19-10 18-10 14-9 10-7 8-12 11-18 13-13 8-21 9-15 5-23 5-22 2h-11l-22-2-20-4-21-7-23-11-18-12-11-9-13-12-12-14-12-18-2-5h17l-6-11-8-18-6-18-3-13v-4l-16 1-1-1-2-18v-19l3-24 5-20 8-21 6-12 10-16 10-13 11-12 10-10 17-13 13-8 16-8 14-6 22-6 18-3zm0 33-21 3-15 4-16 6-17 9-14 10-14 12v2h-2l-7 8-11 15-10 18-6 15-5 19-2 13v34l4 22 6 18 8 16 9 15 11 13 15 15 15 11 18 10 21 8 17 4 18 2h17l18-2 23-6 21-9 16-10 14-11 14-14 12-16 9-16 7-16 5-17 3-18v-33l-3-17-6-20-7-15-9-16-13-16-15-15-15-11-18-10-15-6-18-5-21-3z"
        fill="#C2C2C2" />
    <path transform="translate(949,112)"
        d="m0 0h31l22 3 21 6 18 8 15 10 12 11 7 7 11 16 8 16 7 21 4 21 1 10v29l-2 17-5 21-6 16-8 16-12 16-14 14-14 10-15 8-17 6-17 4-14 2h-36l-19-3-20-6-16-7-14-9-11-9-11-11-11-15-10-19-7-21-4-20-1-10v-28l3-22 6-21 7-16 6-11 8-11 9-10 9-9 14-10 16-8 16-6 17-4zm7 30-17 3-15 6-11 7-10 9-9 10-9 15-6 14-5 16-3 18v33l5 25 7 19 8 14 7 9 9 10 13 9 10 5 13 4 12 2h18l17-3 15-6 11-7 12-11 8-10 8-14 6-14 5-19 2-13v-34l-4-22-6-18-10-19-9-11-8-8-10-7-12-6-13-4-13-2z"
        fill="#fff" />
    <path transform="translate(1891,112)"
        d="m0 0h31l22 3 21 6 18 8 15 10 12 11 7 7 11 16 8 16 7 21 4 21 1 10v30l-3 21-5 19-6 15-9 17-10 13-14 14-14 10-15 8-20 7-20 4-8 1h-36l-19-3-18-5-20-9-12-8-10-8-13-13-11-16-9-17-7-21-4-20-1-9v-30l3-21 6-21 7-16 9-16 9-11 14-14 14-10 16-8 16-6 17-4zm7 30-17 3-15 6-11 7-10 9-9 10-9 15-8 19-5 21-2 23 1 18 3 17 6 20 8 16 8 12 11 12 13 9 12 6 15 4 8 1h18l17-3 15-6 11-7 12-11 8-10 8-14 6-14 5-19 2-13v-34l-4-22-6-18-9-17-9-12-9-9-10-7-12-6-13-4-13-2z"
        fill="#fff" />
    <path transform="translate(1530,116)"
        d="m0 0h99l23 2 20 4 18 6 13 7 10 8 7 7 8 13 4 11 2 11v24l-3 15-7 16-10 13-12 10-14 8-19 7-19 4-18 2h-56v111h-46zm46 29v110h56l15-3 12-5 11-8 7-8 6-12 3-13v-18l-3-12-6-10-5-6-12-8-15-5-11-2z"
        fill="#fff" />
    <path transform="translate(686,112)"
        d="m0 0h29l22 2 23 4 16 4 1 1v9l-2 19-1 2-9-2-23-6-19-3-11-1h-22l-18 3-12 4-11 6-8 7-5 9-2 7v12l4 10 9 10 14 9 19 9 39 15 20 9 16 9 13 10 7 7 7 10 5 11 3 14v13l-3 16-5 12-8 11-11 11-14 9-16 7-13 4-22 4-11 1h-28l-28-3-31-6-18-5-1-1v-11l2-21 5 1 22 8 25 6 24 3h20l19-3 15-5 10-6 8-7 5-8 3-10v-14l-4-11-6-9-9-8-15-9-20-9-41-16-17-8-14-9-13-11-8-11-5-10-3-14v-11l3-15 7-14 9-10 9-8 15-9 19-7 16-4z"
        fill="#fff" />
    <path transform="translate(79,210)"
        d="m0 0h15l6 24 7 18 8 16 2 3v3l-16 1 7 12 9 12 12 14 13 12 15 11 15 9 19 9 21 7 20 4 22 2h11l22-2 23-5 18-6 15-7h2l-2 6-8 12-11 14-12 13-8 7-17 13-15 9-19 9-21 7-19 4-19 2h-21l-24-3-20-5-21-8-21-11-14-10-10-8-6-5 1-3 2-1 176-1 4-1-25-5-21-7-19-9-16-10-13-10-12-11-9-9-11-14-11-17-11-23-6-18-2-13-6-25v-5z"
        fill="#A6001A" />
    <path transform="translate(427,198)"
        d="m0 0h14l1 1v11l-4 20-8 24-9 19-12 19-11 13-11 12-10 9-15 11-9 1-26-1-19 7-16 4-12 2-13 1h-15l-20-2-21-5-17-6-16-8-16-10-11-9-7-6 1-3 20-1 12 9 18 10 21 8 17 4 18 2h17l18-2 23-6 21-9 16-10 14-11 13-13 12-16 9-16 7-16 5-17 3-14 2-3h13z"
        fill="#868686" />
    <path transform="translate(79,210)"
        d="m0 0h15l6 24 7 18 8 16 2 3v3l-16 1 7 12 9 12 12 14 13 12 15 11 15 9 19 9 21 7 20 4 22 2h11l22-2 23-5 18-6 15-7h2l-2 6-8 12-10 13-17 5-21 4-11 1-1 1h-23l-3-1-21-3-17-4-19-7-17-8-16-10-13-10-12-11-9-9-11-14-11-17-11-23-6-18-2-13-6-25v-5z"
        fill="#64000B" />
    <path transform="translate(120,243)"
        d="m0 0 2 2 8 16 8 12 9 11 15 15 2 1v2l-19 1 2 4 15 12 16 10 16 8 17 6 21 5 20 2h15l19-2 19-4 20-7 6-1 26 1 3-1-1 3-13 8-21 9-15 5-23 5-22 2h-11l-22-2-20-4-21-7-23-11-18-12-11-9-13-12-12-14-12-18-2-5h17l-6-11-7-15 1-4z"
        fill="#C0C0C0" />
    <path transform="translate(164,301)"
        d="m0 0 9 6 11 7 16 8 16 6 17 4 18 2h17l18-2 23-6 21-9 16-10 9-6 18 1 2 2-5 5-9 8-15 10-21 11-24 8-21 4-13 1h-15l-20-2-21-5-17-6-16-8-16-10-11-9-7-6 1-3z"
        fill="#504D4E" />
    <path transform="translate(98,95)"
        d="m0 0 2 1-1 4 1 1 13 1-10 23-6 21-2 10h13l2-1v46l4 22 6 18v3l-17 1-6-18-3-13v-4l-16 1-1-1-2-18v-19l3-24 5-20 8-21 6-12z"
        fill="#DFDEDE" />
    <path transform="translate(120,243)"
        d="m0 0 2 2 8 16 8 12 9 11 15 15 2 1v2l-19 1 2 4 15 12 16 10 12 6-2 2-29 1-13-9-10-9-8-7-10-11-11-15-7-12v-1h17l-6-11-7-15 1-4z"
        fill="#858585" />
    <path transform="translate(419,95)"
        d="m0 0h2l10 21 6 18 4 17 2 15v36l-2-3h-16l-1 3-13-1-1 3-1-4v-33l-2-15 2 1 1 3h14l-6-24-6-16-6-14 12-1 1-5z"
        fill="#E2E1E1" />
    <path transform="translate(107,422)"
        d="m0 0h153l2 2v2l-20 8-18 5-18 3-12 1h-21l-24-3-20-5-19-7-4-5z" fill="#AB021D" />
    <path transform="translate(248,17)"
        d="m0 0h23l22 3 19 5 16 6 13 7 4 2-1 2h-31l-33-7-10-1h-21l-21 3-15 4-7 1h-29l-2-2 5-3 16-8 14-5 21-5z"
        fill="#514E4F" />
    <path transform="translate(91,414)" d="m0 0h186l2 1v2l-15 8-3-1-1-1h-153l3 4-6-2-13-7z"
        fill="#63000A" />
    <path transform="translate(309,41)"
        d="m0 0h38l13 9 13 11 12 12 9 12v2h-18l-8-7-11-11-15-11-18-10-15-6z" fill="#989898" />
    <path transform="translate(172,41)"
        d="m0 0h35v2l-16 7-14 8-16 12-8 7-1 2h-2l-2 4-6 5-18-1 6-9 11-12 11-11 15-11z"
        fill="#979797" />
    <path transform="translate(425,210)" d="m0 0h15l1 1-1 11-6 21-8 20-5 10-3 1h-17l8-16 8-19 5-17z"
        fill="#514E4F" />
    <path transform="translate(79,210)" d="m0 0h15l6 24 7 18 8 16 2 3v3l-18 1-11-23-6-18-4-18v-5z"
        fill="#504D4E" />
    <path transform="translate(76,197)"
        d="m0 0 16 1 3 3h12 3l4 22 6 18v3l-17 1-6-18-3-13v-4l-16 1-1-1z" fill="#C0C0C0" />
    <path transform="translate(427,198)"
        d="m0 0h14l1 1v11l-2 1-15-1-2 12-6 20-2 3-16-1v2l-2-1 7-19 5-22 2-3h13z" fill="#C1C1C1" />
    <path transform="translate(373,307)" d="m0 0 22 1-6 7-12 11-15 11-9 1-22-1-2-2 19-10 14-10 8-7z"
        fill="#979797" />
    <path transform="translate(143,307)"
        d="m0 0 5 1 14 11 16 10 12 6-2 2-29 1-13-9-10-9-8-7-3-3 1-2z" fill="#969696" />
    <path transform="translate(120,243)" d="m0 0 2 2 8 16 5 8-1 2-16 1-4-4-10-20 1-4z"
        fill="#969696" />
    <path transform="translate(399,244)" d="m0 0h14l2 1-3 9-9 17-3 1h-18l7-12 8-14h2z"
        fill="#979797" />
    <path transform="translate(309,41)" d="m0 0h38l13 9 6 5v2l-22 1-7-3-15-8-13-5z" fill="#878787" />
    <path transform="translate(172,41)" d="m0 0h35v2l-16 7-11 6-8 2-20-1v-2l15-11z" fill="#868686" />
    <path transform="translate(236,388)" d="m0 0h10l-1 3-184 1v2l-4-1 1-3 2-1z" fill="#63000A" />
    <path transform="translate(76,197)" d="m0 0 16 1 2 7v5l-16 1-1-1z" fill="#858585" />
    <path transform="translate(427,198)" d="m0 0h14l1 1v11l-2 1-15-1 1-11z" fill="#878787" />
    <path transform="translate(322,378)" d="m0 0 2 1-12 13-3-2-18-1-4-2 7-2 22-5z" fill="#AB0520" />
    <path transform="translate(427,188)" d="m0 0h15l1 2v12l-2-3h-15v-9z" fill="#C3C3C3" />
    <path transform="translate(75,186)" d="m0 0 2 2h14l2 5v7l-1-2h-15l-2-6z" fill="#C1C1C1" />
    <path transform="translate(76,197)" d="m0 0 16 1 1 6h-16l-1-1z" fill="#969696" />
    <path transform="translate(427,198)" d="m0 0h14l1 1v5h-15l-1-5z" fill="#979797" />
    <path transform="translate(281,388)" d="m0 0 28 1 2 3-4 1-2-1-23-1z" fill="#64000A" />
</svg>