<?xml version="1.0" encoding="iso-8859-1"?>
<!-- Generator: Adobe Illustrator 27.0.0, SVG Export Plug-In . SVG Version: 6.00 Build 0)  -->
<svg version="1.1" id="Layer_1" xmlns="http://www.w3.org/2000/svg"
	xmlns:xlink="http://www.w3.org/1999/xlink" x="0px" y="0px"
	viewBox="0 0 500 500" style="enable-background:new 0 0 500 500;" xml:space="preserve">

<g>
</g>
<g>
	<path style="fill-rule:evenodd;clip-rule:evenodd;fill:#003A2F;" d="M28.989,227.767c-0.498-0.186-3.989-1.933-3.989-6.076v-29.114
		c0-6.282,6-10.421,10.745-10.421h67.087c5.592,0,10.749,4.216,10.749,10.783v16.969c0,2.539-2.057,4.596-4.596,4.596H87.787
		c-2.538,0-4.595-2.057-4.595-4.596v-1.583c0-2.538-2.058-4.596-4.596-4.596H59.988c-2.538,0-4.596,2.058-4.596,4.596v1.425
		c0,1.83,1.084,3.486,2.763,4.215c11.556,5.014,52.52,21.525,52.831,21.744c2.515,1.736,2.559,3.256,2.594,6.098v27.318
		c-0.119,0,0.122,0,0,0c0,6.226-4.646,11.142-10.008,11.142c0,0.115,0-0.123,0,0H35.016c-4.824,0-10.016-4.916-10.016-10.067
		v-19.481c0-2.54,2.06-4.598,4.6-4.595l21.201,0.02c2.537,0.002,4.591,2.059,4.591,4.596v3.367c0,2.538,2.058,4.595,4.596,4.595
		h18.607c2.538,0,4.596-2.057,4.596-4.595v-1.291c0-1.872-1.136-3.558-2.871-4.261L28.989,227.767L28.989,227.767z"/>
	<path style="fill-rule:evenodd;clip-rule:evenodd;fill:#003A2F;" d="M292.781,277.391v-30.12c0-1.605-1.301-2.906-2.907-2.906
		h-28.229v0.353h-0.373v32.673c0,1.605-1.302,2.908-2.907,2.908h-24.203c-1.605,0-2.907-1.302-2.907-2.908v-92.296
		c0-1.605,1.302-2.906,2.907-2.906h24.203c1.605,0,2.907,1.301,2.907,2.906v30.481c0,1.605,1.302,2.907,2.907,2.907h25.696
		c1.606,0,2.907-1.302,2.907-2.907v-30.481c0-1.605,1.302-2.906,2.907-2.906h24.575c1.606,0,2.907,1.301,2.907,2.906v92.296
		c0,1.605-1.302,2.908-2.907,2.908h-24.575C294.083,280.299,292.781,278.996,292.781,277.391"/>
	<path style="fill-rule:evenodd;clip-rule:evenodd;fill:#003A2F;" d="M126.403,269.877c0,5.131,4.57,10.421,10.02,10.421h71.9
		c6.218,0,10.009-5.658,10.009-10.421v-83.092c0-2.538-2.059-4.596-4.596-4.596h-21.198c-2.538,0-4.596,2.058-4.596,4.596v65.55
		c0,2.537-2.057,4.595-4.596,4.595h-22.319c-2.539,0-4.596-2.058-4.596-4.595v-65.55c0-2.538-2.057-4.596-4.596-4.596h-20.836
		c-2.539,0-4.596,2.058-4.596,4.596V269.877L126.403,269.877z"/>
	<path style="fill-rule:evenodd;clip-rule:evenodd;fill:#003A2F;" d="M337.053,280.298h24.916c1.312,0,2.462-0.879,2.805-2.145
		l2.539-9.363c0.343-1.267,1.493-2.146,2.805-2.146h28.168c1.313,0,2.462,0.88,2.806,2.147l2.536,9.36
		c0.343,1.267,1.493,2.147,2.806,2.147h24.435c2.008,0,3.411-1.987,2.74-3.88l-32.791-92.295c-0.413-1.16-1.509-1.933-2.739-1.933
		h-27.768c-1.224,0-2.316,0.766-2.733,1.917c-5.643,15.574-28.617,76.229-33.315,92.477
		C333.722,278.443,335.116,280.298,337.053,280.298 M393.417,243.189c0.421,1.535-0.735,3.05-2.328,3.05h-13.726
		c-1.615,0-2.775-1.555-2.313-3.104l8.247-27.628c0.383-1.281,2.205-1.26,2.558,0.03L393.417,243.189L393.417,243.189z"/>
	<path style="fill-rule:evenodd;clip-rule:evenodd;fill:#003A2F;" d="M475,277.391v-92.296c0-1.605-1.302-2.906-2.908-2.906h-24.211
		c-1.605,0-2.907,1.301-2.907,2.906v92.296c0,1.605,1.302,2.908,2.907,2.908h24.211C473.698,280.299,475,278.996,475,277.391"/>
	<path style="fill:#003A2F;" d="M138.075,315.075c0.245-0.78,1.109-1.173,1.86-0.849c1.264,0.548,2.784,0.911,4.381,0.911
		c3.298,0,5.226-1.742,5.226-4.264c0-2.298-1.334-3.67-4.708-4.93c-4.077-1.482-6.599-3.634-6.599-7.117
		c0-3.891,3.225-6.783,8.083-6.783c1.743,0,3.184,0.283,4.264,0.666c0.702,0.25,1.063,1.027,0.824,1.732
		c-0.245,0.726-1.039,1.121-1.759,0.859c-0.874-0.319-2.044-0.588-3.441-0.588c-3.411,0-4.707,2.041-4.707,3.744
		c0,2.337,1.519,3.484,4.967,4.82c4.227,1.632,6.34,3.67,6.34,7.338c0,3.858-2.818,7.231-8.712,7.231
		c-1.854,0-3.84-0.439-5.265-1.047c-0.65-0.277-0.979-1.005-0.767-1.679L138.075,315.075L138.075,315.075z"/>
	<path style="fill:#003A2F;" d="M169.557,305.721h-7.008c-0.737,0-1.334,0.597-1.334,1.334v6.34c0,0.738,0.598,1.334,1.334,1.334
		h8.157c0.738,0,1.334,0.598,1.334,1.334v0.036c0,0.737-0.597,1.334-1.334,1.334h-11.419c-0.737,0-1.334-0.598-1.334-1.334v-22.318
		c0-0.736,0.598-1.334,1.334-1.334h10.862c0.737,0,1.334,0.598,1.334,1.334v0.039c0,0.737-0.598,1.334-1.334,1.334h-7.6
		c-0.737,0-1.334,0.597-1.334,1.334v5.229c0,0.737,0.598,1.334,1.334,1.334h7.008c0.737,0,1.334,0.598,1.334,1.334
		C170.892,305.125,170.294,305.721,169.557,305.721"/>
	<path style="fill:#003A2F;" d="M196.021,315.401c0,0.565-0.363,1.065-0.901,1.237c-1.586,0.505-4.035,1.057-6.81,1.057
		c-3.781,0-6.894-0.962-9.34-3.298c-2.15-2.077-3.485-5.412-3.485-9.305c0-7.452,5.153-12.899,13.531-12.899
		c2.049,0,3.8,0.315,5.03,0.684c0.693,0.209,1.087,0.938,0.873,1.63l-0.042,0.136c-0.215,0.694-0.957,1.063-1.649,0.841
		c-1.12-0.36-2.485-0.586-4.286-0.586c-6.079,0-10.046,3.782-10.046,10.045c0,6.341,3.781,10.085,9.638,10.085
		c1.407,0,2.517-0.131,3.32-0.327c0.578-0.141,0.98-0.664,0.98-1.26v-5.233c0-0.717-0.582-1.299-1.299-1.299h-2.444
		c-0.717,0-1.298-0.581-1.298-1.298c0-0.716,0.581-1.299,1.298-1.299h5.632c0.717,0,1.299,0.582,1.299,1.299V315.401
		L196.021,315.401z"/>
	<path style="fill:#003A2F;" d="M203.423,292.448c0.803,0,1.453,0.651,1.453,1.453v13.376c0,5.561,2.484,7.933,5.821,7.933
		c3.67,0,6.079-2.447,6.079-7.933v-13.376c0-0.803,0.65-1.453,1.453-1.453h0.356c0.802,0,1.453,0.651,1.453,1.453v13.152
		c0,7.676-4.041,10.79-9.452,10.79c-5.117,0-8.972-2.893-8.972-10.676v-13.266c0-0.803,0.651-1.453,1.453-1.453H203.423
		L203.423,292.448z"/>
	<path style="fill:#003A2F;" d="M229.9,302.493c0,0.748,0.607,1.355,1.355,1.355h1.722c3.214,0,5.253-1.765,5.253-4.425
		c0-3.01-2.177-4.321-5.358-4.321c-0.672,0-1.248,0.022-1.725,0.059c-0.705,0.055-1.248,0.644-1.248,1.351V302.493L229.9,302.493z
		 M226.375,294.029c0-0.73,0.54-1.346,1.265-1.441c1.475-0.193,3.254-0.325,4.923-0.325c3.448,0,5.711,0.67,7.23,2.041
		c1.224,1.112,1.965,2.817,1.965,4.781c0,3.263-2.076,5.45-4.67,6.34v0.111c1.89,0.667,3.038,2.447,3.632,5.041
		c0.486,2.076,0.893,3.77,1.252,5.005c0.27,0.928-0.432,1.852-1.397,1.852h-0.279c-0.626,0-1.186-0.398-1.379-0.994
		c-0.348-1.07-0.764-2.77-1.235-4.973c-0.742-3.448-2.113-4.745-5.042-4.856h-1.588c-0.802,0-1.453,0.652-1.453,1.453v7.916
		c0,0.803-0.651,1.453-1.453,1.453h-0.318c-0.803,0-1.453-0.65-1.453-1.453V294.029L226.375,294.029z"/>
	<path style="fill:#003A2F;" d="M255.899,296.559c-0.067-0.225-0.388-0.216-0.446,0.011c-0.282,1.122-0.57,2.139-0.966,3.399
		l-1.791,5.289c-0.239,0.707,0.286,1.439,1.032,1.439h3.99c0.749,0,1.274-0.738,1.03-1.445l-1.813-5.245L255.899,296.559
		L255.899,296.559z M250.95,310.573l-1.936,5.863c-0.197,0.596-0.753,0.998-1.38,0.998h-0.254c-0.996,0-1.698-0.98-1.376-1.923
		l7.534-22.079c0.202-0.589,0.754-0.985,1.376-0.985h1.777c0.621,0,1.174,0.395,1.375,0.985l7.535,22.079
		c0.32,0.943-0.38,1.923-1.376,1.923h-0.374c-0.623,0-1.176-0.397-1.376-0.986l-2.001-5.886c-0.2-0.59-0.754-0.986-1.376-0.986
		h-6.767C251.703,309.576,251.147,309.978,250.95,310.573"/>
	<path style="fill:#003A2F;" d="M273.889,313.575c0,0.777,0.609,1.418,1.383,1.452c0.577,0.025,1.219,0.036,1.88,0.036
		c6.932,0,10.637-3.855,10.637-10.602c0.039-5.895-3.298-9.639-10.12-9.639c-0.973,0-1.808,0.05-2.504,0.129
		c-0.73,0.083-1.276,0.708-1.276,1.444V313.575L273.889,313.575z M270.664,294.07c0-0.728,0.537-1.345,1.26-1.442
		c1.676-0.224,3.567-0.365,5.599-0.365c4.634,0,7.933,1.115,10.121,3.117c2.258,2.038,3.558,4.93,3.558,8.971
		c0,4.078-1.3,7.413-3.597,9.71c-2.372,2.336-6.227,3.597-11.083,3.597c-1.727,0-3.21-0.062-4.525-0.169
		c-0.754-0.061-1.331-0.692-1.331-1.449V294.07L270.664,294.07z"/>
	<path style="fill:#003A2F;" d="M298.017,305.055c0,5.372,2.89,10.156,8.005,10.156c5.119,0,8.008-4.709,8.008-10.38
		c0-5.006-2.594-10.195-7.969-10.195C300.686,294.636,298.017,299.605,298.017,305.055 M317.443,304.682
		c0,8.563-5.23,13.162-11.605,13.162c-6.634,0-11.232-5.154-11.232-12.717c0-7.933,4.894-13.12,11.567-13.12
		C313.029,292.006,317.443,297.233,317.443,304.682"/>
	<path style="fill:#003A2F;" d="M325.946,302.454c0,0.739,0.598,1.338,1.338,1.338h1.699c3.173,0,5.187-1.741,5.187-4.368
		c0-2.97-2.15-4.265-5.289-4.265c-0.663,0-1.232,0.021-1.703,0.059c-0.696,0.055-1.232,0.635-1.232,1.334V302.454L325.946,302.454z
		 M322.367,294.029c0-0.73,0.542-1.346,1.267-1.441c1.472-0.194,3.251-0.325,4.922-0.325c3.448,0,5.709,0.67,7.231,2.041
		c1.223,1.111,1.963,2.818,1.963,4.781c0,3.263-2.076,5.45-4.67,6.341v0.111c1.891,0.665,3.039,2.446,3.634,5.04
		c0.486,2.076,0.892,3.77,1.252,5.005c0.269,0.927-0.432,1.853-1.397,1.853h-0.281c-0.626,0-1.186-0.4-1.379-0.996
		c-0.346-1.069-0.762-2.77-1.234-4.97c-0.744-3.449-2.115-4.746-5.043-4.856h-1.586c-0.803,0-1.454,0.651-1.454,1.453v7.916
		c0,0.803-0.65,1.453-1.453,1.453h-0.317c-0.803,0-1.453-0.651-1.453-1.453V294.029L322.367,294.029z"/>
	<path style="fill:#003A2F;" d="M352.12,297.513c-0.132-0.435-0.752-0.424-0.866,0.016c-0.216,0.83-0.451,1.677-0.735,2.511
		l-1.667,4.922c-0.265,0.783,0.318,1.595,1.145,1.595h3.439c0.831,0,1.414-0.818,1.142-1.603l-1.688-4.881L352.12,297.513
		L352.12,297.513z M346.943,310.574l-1.935,5.863c-0.197,0.596-0.753,0.998-1.381,0.998h-0.255c-0.996,0-1.697-0.98-1.375-1.923
		l7.536-22.079c0.201-0.588,0.754-0.984,1.375-0.984h1.775c0.623,0,1.176,0.395,1.376,0.984l7.536,22.079
		c0.322,0.943-0.379,1.923-1.376,1.923h-0.375c-0.623,0-1.176-0.397-1.376-0.986l-2.001-5.887c-0.2-0.589-0.754-0.985-1.376-0.985
		h-6.768C347.695,309.576,347.14,309.978,346.943,310.574"/>
</g>
</svg>