<?xml version="1.0" encoding="UTF-8"?>
<svg version="1.1" viewBox="0 0 2048 756" width="1280" height="1280" xmlns="http://www.w3.org/2000/svg">
<path transform="translate(148,2)" d="m0 0h1755l19 3 18 5 21 9 17 10 14 11 13 12 9 11 10 14 9 16 8 20 5 19 2 12v611l-2 1h-1884l-23-2-19-4-17-6-19-9-15-10-10-8-12-11-9-10-10-14-8-14-7-15-6-18-4-22-1-13v-444l2-19 5-21 7-19 10-19 10-14 12-14 7-7 14-11 14-9 15-8 19-7 23-5z" fill="#FDFDFD"/>
<path transform="translate(1453,183)" d="m0 0h205l7 2 9 10 12 16 16 21 14 19 14 18 14 19 13 17 16 21 14 19 14 18 14 19 10 13 16 21 9 13 1 2v7l-4 5-4 1-98 1-4 3 1 7 13 18 56 76 7 10 1 2v8l-4 4-3 1h-137l-8-5-70-95-13-18-2-4 1-5 3-3 56-1 7-2v-9l-14-19-15-20-14-19-16-21-10-14-9-12-1-8 5-5 61-1 7-1 3-4-1-7-14-19-16-21-14-19-16-21-12-16-5-5-8-3-9 1-6 4-4 5-1 2h-2l-2 4-10 14-14 18-14 19-16 21-12 17-1 5 2 4 6 2 63 1 4 2 2 6-3 7-8 11-15 20-16 21-7 10-30 40-1 7 4 4 3 1 55 1 5 3v6l-6 10-13 17-13 18-15 20-13 18-1 2h-2l-2 5-9 12-10 13-6 5-2 1h-137l-6-3-2-4 1-7 9-13 42-57 6-9h2l2-5 13-17 4-8-2-5-3-1-97-1-6-3-3-5 2-8 13-18 28-38 13-18 14-19 13-18 28-38 13-18 14-19 13-18 14-19 12-16 6-5z" fill="#1B3965"/>
<path transform="translate(148,2)" d="m0 0h1755l19 3 18 5 21 9 17 10 14 11 13 12 9 11 10 14 9 16 8 20 5 19 2 12v611l-2 1h-1884l-23-2-19-4-17-6-19-9-15-10-10-8-12-11-9-10-10-14-8-14-7-15-6-18-4-22-1-13v-444l2-19 5-21 7-19 10-19 10-14 12-14 7-7 14-11 14-9 15-8 19-7 23-5zm-1 18-21 4-15 5-19 9-16 11-10 9-6 5-9 11-9 12-11 21-7 21-3 17-1 9v450l3 21 6 20 11 23 10 14 11 13 12 11 14 10 21 11 18 6 20 4 20 1h1864l1-1v-580l-2-19-5-20-8-19-9-16-11-14-8-9-8-7-15-11-16-9-15-6-13-4-17-3z" fill="#203D69"/>
<path transform="translate(731,435)" d="m0 0h8l14 3 10 6 7 9 4 8 6-9 9-8 10-5 12-3 14-1 12 2 10 5 8 7 6 12 2 8v104l-3 2h-45l-3-2-1-80-2-11-5-4-6-2h-11l-9 1-1 3-1 91-4 4h-45l-3-2-1-84-2-9-4-2-6-2h-12l-9 3-1 1-1 92-3 3h-46l-3-4v-131h2v-2h48l2 2 1 20 6-8 7-7 14-7 7-2z" fill="#008B54"/>
<path transform="translate(202,394)" d="m0 0h49l3 3 1 113 4 11 6 7 11 4h14l9-2 8-6 4-8 2-9 1-110 2-3h49l3 2v115l-3 17-5 13-9 13-10 9-16 8-13 4-14 2h-28l-18-3-14-5-11-6-4-3v-2l-4-2-2-4h-2l-6-9-6-14-3-17-1-13v-99l2-5z" fill="#008B54"/>
<path transform="translate(1138,394)" d="m0 0h46l3 3v175l-3 3h-45l-4-4 1-18h-2l-2 5-8 9-10 6-8 3-5 1h-17l-10-3-10-5v-2l-4-2-6-7-5-10-4-14-2-16v-27l3-16 4-13 6-10 5-6 13-8 7-2 16-1 14 3 11 6 9 9 3 6h1v-62z" fill="#008B54"/>
<path transform="translate(977,180)" d="m0 0h15l17 3 13 5 11 7 9 9 7 11 5 12 3 12 1 8v24l-3 15-5 14-6 10-9 10-9 8-14 7-15 4-7 1h-18l-16-3-12-5-10-6-8-7-9-13-5-12-4-17-1-10v-15l4-20 6-15 7-10 9-10 14-9 13-5z" fill="#1B3965"/>
<path transform="translate(953,435)" d="m0 0h9l17 2 15 5 11 7 8 8 7 12 4 13 2 16v11l-2 7-5 4h-82l3 9 5 6 6 3 12 2 56 1 3 3-1 9-3 15-6 4-13 3-16 2h-33l-18-3-12-4-9-5-8-6-8-8-6-10-5-15-2-18 1-17 4-16 6-12 9-11 10-7 11-5 17-4z" fill="#008B54"/>
<path transform="translate(490,435)" d="m0 0h8l14 3 10 6 6 7 4 8 3 12v101l-3 3h-45l-3-2-1-83-3-9-3-3-8-2h-12l-8 2-3 3-1 91-3 3h-46l-3-4v-130l2-3h48l2 2 1 21 6-9 9-8 10-5 12-3z" fill="#008B54"/>
<path transform="translate(825,183)" d="m0 0h21l15 4 11 6 8 8 5 8 4 13v22l-4 13-5 9h-2l-2 4-3 3h-2v2l-7 4 8 16 14 26 7 14-1 2h-38l-5-8-14-27-8-15-18-1v50l-1 1h-35l-1-1v-152z" fill="#1B3965"/>
<path transform="translate(530,180)" d="m0 0h22l19 3 14 4-6 25-2 7-17-4-10-1h-18l-15 4-10 5-9 9-6 12-2 7-1 16 3 15 4 8 7 8 8 5 15 4h20l9-1v-22h-24v-32h57l1 20v23l-1 35-19 6-16 3-9 1h-21l-15-2-17-6-12-7-9-8-9-13-5-11-4-18v-20l3-17 6-16 8-12 8-9 11-8 14-7 8-3z" fill="#1B3965"/>
<path transform="translate(629,183)" d="m0 0h20l1 31v61l2 13 5 10 7 6 8 3h13l10-4 7-8 4-13 1-98 35-1 1 1v101l-3 16-5 12-7 9-9 8-13 6-16 4h-20l-16-3-12-5-10-7-8-9-7-14-3-16v-102z" fill="#1B3965"/>
<path transform="translate(427,183)" d="m0 0h10v32l-65 1-1 28h52v32h-52v29h66v32h-101l-1-4v-149z" fill="#1B3965"/>
<path transform="translate(1131,180)" d="m0 0h16l22 3 14 4-3 15-3 13-1 2-9-1-19-3h-17l-11 3-5 4-2 5 1 6 4 5 14 6 22 8 14 7 10 8 6 10 3 11v13l-3 11-4 8-8 9-14 8-15 4-7 1h-19l-20-3-21-6-1-3 7-26 1-2 9 2 17 4 7 1h17l11-4 4-6v-6l-2-4-14-7-23-8-15-8-10-9-5-8-3-11v-13l3-12 6-10 9-9 16-8 12-3z" fill="#1B3965"/>
<path transform="translate(255,180)" d="m0 0h17l22 3 14 4-2 10-5 20-9-1-19-3h-17l-9 2-6 4-3 5 1 8 1 3 5 2 12 5 24 9 15 8 9 9 5 10 2 10v9l-3 13-5 9-6 7-11 7-10 4-16 3h-19l-20-3-21-6-1-4 7-25 1-2 9 2 17 4 7 1h17l11-4 3-4 1-7-3-5-8-5-28-10-14-7-10-9-4-5-4-9-1-5v-16l3-10 6-10 9-9 8-5 11-4z" fill="#1B3965"/>
<path transform="translate(561,438)" d="m0 0h47l3 2v132l-3 3h-45l-4-3v-131z" fill="#008B54"/>
<path transform="translate(976,212)" d="m0 0h13l12 4 9 7 6 9 4 10 2 11v14l-3 14-6 12-6 7-10 6-8 2h-13l-10-3-8-6-7-8-5-11-2-10v-20l3-13 5-9 9-10 8-4z" fill="#FDFDFD"/>
<path transform="translate(1113,473)" d="m0 0h8l9 2 5 5 1 4v43l-3 7-4 4-8 2-9-1-6-3-5-6-3-10-1-8v-12l2-12 4-9 5-4z" fill="#FDFDFD"/>
<path transform="translate(570,384)" d="m0 0h29l9 3 4 5 2 7v11l-3 9-6 5-14 2h-13l-13-2-7-5-2-8v-15l3-6 4-4z" fill="#008B54"/>
<path transform="translate(809,215)" d="m0 0h29l8 4 5 6 2 10-2 8-4 6-7 4-4 1h-27z" fill="#FDFDFD"/>
<path transform="translate(952,469)" d="m0 0h11l7 3 4 3 4 13v6l-42 1-1-2 4-14 3-5 6-4z" fill="#FDFDFD"/>
</svg>
