<?xml version="1.0" encoding="utf-8"?>
<!-- Generator: Adobe Illustrator 27.5.0, SVG Export Plug-In . SVG Version: 6.00 Build 0)  -->
<svg version="1.1" xmlns="http://www.w3.org/2000/svg" xmlns:xlink="http://www.w3.org/1999/xlink"
	x="0px" y="0px"
	viewBox="0 0 1022 1022" style="enable-background:new 0 0 1022 1022;" xml:space="preserve">

<g id="shadow">
	<path style="opacity:0.12;fill:#606060;" d="M964.703,859H243.487c-22.813,0-41.477,13.054-41.477,29.008l0,0
		c0,11.048,8.953,20.7,22.032,25.595h-63.509c-22.813,0-41.477,13.053-41.477,29.008l0,0c0,15.954,18.665,29.008,41.477,29.008
		h22.13c-6.181,5.069-9.93,11.626-9.93,18.77v11.603c0,15.954,18.665,29.008,41.477,29.008H924.69
		c22.813,0,41.477-13.054,41.477-29.008v-11.603c0-15.954-18.665-29.008-41.477-29.008l-48.309,0.644
		c3.68,0,9.655-2.03,13.663-6.112c7.028-7.156,7.34-18.049,3.904-27.066c-2.228-5.845-5.797-10.48-14.639-12.223l85.394,0.392
		c22.813,0,41.477-13.054,41.477-29.008l0,0C1006.18,872.054,987.516,859,964.703,859z"/>
</g>
<g id="object">
	<g>
		<polygon style="fill:#3A3029;" points="457.684,945.874 457.684,957.519 480.975,969.165 492.621,957.519 480.975,945.874 		"/>
	</g>
	<g>
		<polygon style="fill:#514943;" points="673.347,951.387 673.347,960.694 655.622,970 646.759,960.694 655.622,951.387 		"/>
	</g>
	<g>
		<g>
			<polygon style="fill:#EAC5B0;" points="574.055,419 576.055,434 569.7,443.778 559.388,442.261 558.055,425 572.055,418 			"/>
		</g>
		<g>
			<polygon style="fill:#3ABABA;" points="463.055,407 536.055,503 550.055,440 576.055,445 561.055,540 535.837,557.519 
				469.055,513 			"/>
		</g>
		<g>
			<polygon style="fill:#EBB044;" points="728.055,422 751.055,439 842.055,565 838.055,595 797.055,595 706.055,473 			"/>
		</g>
		<g>
			<polygon style="fill:#3A3029;" points="331.03,945.56 328.558,956.901 348.149,973.051 361.653,964.114 353.093,950.369 
				333.502,934.218 			"/>
		</g>
		<g>
			<polygon style="fill:#145566;" points="399.545,596.844 377.684,647.256 375.622,789.091 330.672,941.653 351.573,950.922 
				443.302,773.776 453.741,717.667 457.89,599.498 			"/>
		</g>
		<g>
			<polygon style="fill:#145566;" points="505.39,608.142 507.109,756.785 479.098,948.437 457.56,948.437 443.957,771.597 
				414.483,594.757 			"/>
		</g>
		<g>
			<path style="fill:#3ABABA;" d="M462.976,406.867l-57.212-2.119c0,0-34.226,30.031-51.915,108.067
				c-18.011,79.461,3.326,193.853,3.326,193.853s153.493-20.457,178.661-23.617l-38.397-156.889L462.976,406.867z"/>
		</g>
		<g>
			<path style="fill:#EAC5B0;" d="M442.473,412.712c-6.681-0.653-13.362-1.307-20.043-1.96c-0.072-5.353,0.284-10.712,1.065-16.008
				c-5.571-1.95-12.008-4.877-12.987-10.698c-0.308-1.833,0.006-3.708,0.32-5.54c1.298-7.575,2.597-15.149,3.895-22.724
				c0.449-2.62,0.927-5.317,2.348-7.563c2.494-3.941,7.342-5.67,11.937-6.474c11.724-2.052,24.506,0.472,33.609,8.14
				c2.423,2.041,4.614,4.495,5.685,7.476c1.651,4.596,0.428,9.671-0.806,14.396c-1.139,4.362-2.278,8.724-3.417,13.086
				c-1.31,5.017-3.204,10.721-8.033,12.608c-2.564,1.002-5.593,0.714-7.914,2.195C444.038,402.257,444.598,408.347,442.473,412.712z
				"/>
		</g>
		<g>
			<path style="fill:#1A3151;" d="M507.746,337.008c0.13-5.193-0.6-10.447-1.637-15.182c-1.783-8.137-11.382-11.794-19.692-12.37
				c-17.947-1.245-35.267-9.382-52.794-3.102c-10.018,3.59-23.473,4.452-32.539,9.513c-3.786,2.113-6.805,5.412-9.156,9.055
				c-8.147,12.621-8.169,30.007-0.053,42.648c1.821,2.836,3.998,5.427,6.286,7.902c4.736,5.122,10.401,11.448,16.908,13.34
				c0.147-5.819-5.178-24.161-0.716-28.937c7.082-7.578,23.121-4.959,31.922-3.108c9.599,2.02,18.162,8.804,27.679,10.243
				c6.848,1.036,15.581-2.334,21.398-5.88C504.468,355.572,507.511,346.39,507.746,337.008z"/>
		</g>
		<g>
			<path style="fill:#D1E7F5;" d="M447.196,413.941l60.146,240.583l4.93,31.552l-74.936,9.86c0,0,2.958-115.207,1.972-130.567
				c-0.986-15.36-12.099-48.584-13.804-84.38c-0.986-20.706-7.563-57.897-2.958-70.006L447.196,413.941z"/>
		</g>
		<g>
			<path style="fill:#1A3151;" d="M656.679,336.309c0,0-10.624,8.691-5.624,40.691s2,53,2,53s11,5,19,0s11-6,8-19s-9-75-9-75
				L656.679,336.309z"/>
		</g>
		<g>
			<polygon style="fill:#514943;" points="753.268,945.071 754.2,954.293 737.474,965.791 727.712,957.708 735.609,947.349 
				752.335,935.85 			"/>
		</g>
		<g>
			<polygon style="fill:#EAC5B0;" points="752.851,663.135 755.683,691.141 730.6,787.361 753.891,941.981 736.747,947.898 
				691.538,796.943 684.364,753.028 684.625,660.061 			"/>
		</g>
		<g>
			<polygon style="fill:#EAC5B0;" points="620.988,694.349 657.05,953.436 673.442,953.436 676.392,787.361 706.226,670.795 			"/>
		</g>
		<g>
			<path style="fill:#EBB044;" d="M665.488,430.915c0.332-0.565,0.678-1.123,1.039-1.671c12.871-19.51,42.011-7.241,61.094-7.24
				c5.222,55.071,19.659,107.557,28.984,161.628c9.904,57.427,21.054,114.637,33.442,171.578c0.701,3.224-49.179,1.598-53.884,1.677
				c-47.988,0.811-110.804,0.645-157.109-13.887c29.551-79.46,40.34-164.957,63.611-246.484
				c5.132-17.979,10.691-35.702,17.253-53.063C661.538,439.171,663.175,434.853,665.488,430.915z"/>
		</g>
		<g>
			<path style="fill:#1A3151;" d="M683.034,347.122c-12.147,3.328-21.71,14.587-23.042,27.13
				c-6.638-6.194-10.027-15.704-8.805-24.709c1.222-9.004,7.024-17.263,15.072-21.457c7.531,4.003,13.37,11.086,15.87,19.25
				L683.034,347.122z"/>
		</g>
		<g>
			<path style="fill:#EAC5B0;" d="M658.325,363.424c6.276-33.19,47.678-27.455,59.554-0.578C724.632,378.13,723.055,408,704.047,413
				c-0.29,2.938-0.671,8.446-2.913,10.411c-2.429,2.128-10.081,0.1-13.079-0.595c-0.832-0.193-1.7-0.432-2.303-1.037
				c-0.754-0.757-0.881-2.786-0.896-5.033c-2.201-0.15-4.455-0.579-6.75-1.334c-9.63-3.167-16.604-12.095-19.488-21.828
				C655.734,383.853,656.438,373.397,658.325,363.424z"/>
		</g>
		<g>
			<path style="fill:#1A3151;" d="M667.055,328c0,0-4,18,19,23s37.937,23,33.969,42s-20.969,33-11.969,38s42,0,42,0s20-67-7-96
				S677.055,305,667.055,328z"/>
		</g>
		<g>
			<polygon style="fill:#EBB044;" points="670.792,424.357 654.959,434.498 581.055,524 583.055,549 617.405,549 680.055,450 			"/>
		</g>
		<g>
			<path style="fill:#145566;" d="M851.297,511.184c-70.128-11.84-90.9-54.927-93.546-61.119c0,0,0.087-0.479-0.155-0.37
				c-0.101-0.245-0.368,0.161-0.368,0.161c-6.186,2.66-50.94,19.544-109.895-20.237c0,0-56.343,112.152-37.664,174.567
				c19.951,66.663,47.748,95.523,47.971,95.46c0.117,0.2,40.324-1.127,100.565-36.06
				C814.565,630.904,851.297,511.184,851.297,511.184z"/>
		</g>
		<g>
			<path style="fill:#9EA6AD;" d="M837.077,519.351c-63.541-10.983-82.595-49.568-85.027-55.111c0,0,0.076-0.426-0.143-0.331
				c-0.092-0.22-0.332,0.141-0.332,0.141c-5.583,2.338-45.989,17.145-99.582-18.714c0,0-50.331,99.778-33.056,155.603
				c18.451,59.625,42.643,88.303,42.844,88.248c0.107,0.179,37.627-3.521,91.943-34.347
				C804.541,626,837.077,519.351,837.077,519.351z"/>
		</g>
		<g>
			<g>
				<path style="fill:#D1E7F5;" d="M747.479,474.231c0,0,0.251-0.378,0.348-0.148c0.229-0.1,0.149,0.347,0.149,0.347
					c2.497,5.693,21.74,44.655,85.228,57.014c3.928-10.65,6.008-17.467,6.008-17.467c-63.541-10.983-82.595-49.568-85.027-55.111
					c0,0,0.076-0.427-0.143-0.331c-0.093-0.22-0.332,0.142-0.332,0.142c-5.583,2.338-45.989,17.145-99.582-18.714
					c0,0-3.209,6.363-7.728,16.77C700.924,491.589,741.744,476.633,747.479,474.231z"/>
			</g>
		</g>
		<g>
			<path style="fill:#B5D6CA;" d="M808.228,541.133c-48.079-8.117-67.166-40.824-68.98-45.069c0,0,0.06-0.328-0.106-0.254
				c-0.069-0.168-0.252,0.11-0.252,0.11c-4.241,1.824-40.313,12.407-80.732-14.866c0,0-33.24,77.883-20.434,120.674
				c13.678,45.704,32.736,65.49,32.888,65.447c0.081,0.137,27.646-0.773,68.947-24.722
				C778.199,620.045,808.228,541.133,808.228,541.133z"/>
		</g>
		<g>
			<polygon style="fill:#3ABABA;" points="406.055,405 379.055,420 290.055,552 298.055,586 347.055,580 			"/>
		</g>
		<g>
			<polygon style="fill:#9EA6AD;" points="545.696,595.596 356.576,644.564 322.142,511.578 403.084,434.498 511.263,462.611 			"/>
		</g>
		<g>
			<path style="fill:#1A3151;" d="M557.753,445.901c-17.323-4.486-34.646-8.971-51.969-13.457
				c-28.013-7.254-56.026-14.507-84.039-21.76c-6.769-1.753-13.519-3.697-20.334-5.265c-4.316-0.993-8.137,0.138-11.265,3.149
				c-1.999,1.924-3.939,3.914-5.907,5.869c-18.99,18.869-37.979,37.737-56.969,56.606c-15.406,15.308-31.083,30.389-46.239,45.945
				c-0.251,0.258-0.511,0.508-0.766,0.761c-3.863,3.838-3.885,10.409-0.044,14.271c3.854,3.876,10.392,3.899,14.271,0.044
				c12.496-12.417,24.992-24.833,37.489-37.25c19.823-19.697,39.646-39.393,59.469-59.09c3.205-3.184,6.409-6.368,9.614-9.553
				c15.704,4.066,31.408,8.133,47.112,12.199c28.232,7.31,56.465,14.621,84.697,21.931c6.463,1.673,12.926,3.347,19.389,5.02
				c5.274,1.366,10.95-1.642,12.456-6.964C566.18,453.188,563.045,447.271,557.753,445.901z"/>
		</g>
		<g>
			
				<rect x="370.221" y="537.365" transform="matrix(0.9681 -0.2507 0.2507 0.9681 -133.6151 117.3879)" style="fill:#FFFFF1;" width="47.634" height="91.761"/>
		</g>
		<g>
			<g>
				
					<rect x="439.083" y="521.199" transform="matrix(0.9681 -0.2507 0.2507 0.9681 -118.9799 130.2971)" style="fill:#FFFFF1;" width="25.91" height="22.096"/>
			</g>
			<g>
				
					<rect x="471.917" y="512.697" transform="matrix(0.9681 -0.2507 0.2507 0.9681 -115.8023 138.258)" style="fill:#FFFFF1;" width="25.91" height="22.096"/>
			</g>
			<g>
				
					<rect x="446.662" y="550.471" transform="matrix(0.9681 -0.2507 0.2507 0.9681 -126.0753 133.1314)" style="fill:#FFFFF1;" width="25.91" height="22.096"/>
			</g>
			<g>
				
					<rect x="479.496" y="541.97" transform="matrix(0.9681 -0.2507 0.2507 0.9681 -122.8977 141.0923)" style="fill:#FFFFF1;" width="25.91" height="22.096"/>
			</g>
		</g>
		<g>
			<polygon style="fill:#3ABABA;" points="290.055,552 323.055,542 433.055,601 424.555,624 298.055,586 			"/>
		</g>
		<g>
			<polygon style="fill:#EAC5B0;" points="431.574,605.007 451.055,605 466.599,623.728 449.055,630 425.446,621.59 			"/>
		</g>
		<g>
			<polygon style="fill:#EBB044;" points="842.055,565 805.055,553 720.055,562 721.055,588 838.055,601 			"/>
		</g>
		<g>
			<polygon style="fill:#EAC5B0;" points="720.024,565.25 700.055,565 680.055,577 688.055,588 708.055,586 720.757,580.242 			"/>
		</g>
		<g>
			<g>
				<path style="fill:#1A3151;" d="M589.107,43.775c0-3.267,0-6.533,0-9.8l-4.513-9.235c-1.121-1.273-3.485-1.222-4.521,0.097
					l-3.777,9.138v9.8c-3.558,0-9.35,2.788-9.35,6.227c0,3.439,2.884,6.227,6.442,6.227h2.909v332.095
					c0,18.737-9.906,34.323-24.134,33.988c-11.026-0.259-20.643-9.633-22.262-24.933c-0.359-3.389-3.252-5.996-6.777-5.996h-0.255
					c-4.074,0-7.266,3.442-6.76,7.35c2.814,21.761,20.083,37.33,36.477,37.33c12.81,0,23.315-5.936,29.434-16.638
					c7.574-13.249,7.09-27.815,7.089-42.353c0-13.772,0-27.544,0-41.317c0-19.229,0-38.458,0-57.687c0-21.925,0-43.85,0-65.774
					c0-21.86,0-43.719,0-65.579c0-19.034,0-38.067,0-57.101c0-11.128,0-22.256,0-33.384h1.995c3.558,0,6.442-2.788,6.442-6.227
					C597.544,46.563,592.665,43.775,589.107,43.775z"/>
			</g>
			<g style="opacity:0.26;">
				<polygon style="fill:#1A3151;" points="589.107,229.94 576.162,216.484 576.162,194.256 589.107,194.256 				"/>
			</g>
		</g>
		<g>
			<path style="fill:none;" d="M680.424,261c0.505,0.244,1.01,0.487,1.507,0.735c0.72-0.249,1.445-0.494,2.175-0.735h-2.307H680.424
				z"/>
		</g>
		<g>
			<path style="fill:#B5D6CA;" d="M487.541,259.067l2.309-14.215c7.999-49.239,26.922-96.061,55.379-137.032l35.963-51.777
				c-87.56,3.709-162.633,55.625-199.374,129.895c-11.211,22.664-18.839,47.412-22.178,73.501c18.946-5.666,40.89-8.916,64.37-8.916
				C446.972,250.523,468.642,253.631,487.541,259.067z"/>
		</g>
		<g>
			<path style="fill:#B5D6CA;" d="M675.636,230.484L681.799,261h2.307c20.032-6.627,43.769-10.477,69.327-10.477
				c25.47,0,49.35,3.824,69.622,10.409c-4.043-33.314-15.101-64.464-31.65-91.932C750.542,101.179,676.194,55.814,591.243,55.814
				c-2.503,0-4.993,0.053-7.477,0.131l28.731,42.008C647.716,141.274,663.888,185.158,675.636,230.484z"/>
		</g>
		<g>
			<path style="fill:#145566;" d="M489.85,244.851l-2.309,14.215c0.207,0.06,0.413,0.12,0.62,0.181
				c24.244-10.779,57.47-16.961,94.166-16.961c38.642,0,73.514,6.854,98.098,18.713h1.376l-6.163-30.516
				c-11.749-45.326-27.92-89.21-63.14-132.53l-28.731-42.008c-0.859,0.027-1.716,0.062-2.573,0.098l-35.963,51.777
				C516.772,148.79,497.849,195.613,489.85,244.851z"/>
		</g>
		<g>
			<path style="fill:#FFFFFF;" d="M487.541,259.067l-0.079,0.49c0.231-0.104,0.466-0.206,0.699-0.309
				C487.954,259.187,487.748,259.126,487.541,259.067z"/>
		</g>
		<g>
			<polygon style="fill:#EBB044;" points="581.055,524 613.394,521.459 673.055,588 660.055,601 583.055,549 			"/>
		</g>
		<g>
			<polygon style="fill:#EAC5B0;" points="670.305,590.75 683.055,601 684.055,620 673.055,620 663.607,597.448 			"/>
		</g>
		<g>
			<polygon style="fill:#EAC5B0;" points="552.055,440 545.696,428.726 546.055,411 552.055,413 554.055,422 565.055,432 
				561.814,442.261 			"/>
		</g>
		<g>
			<polygon style="fill:#EAC5B0;" points="552.249,425.466 553.691,413.851 565.527,405.052 573.633,411.333 571.744,420.999 			"/>
		</g>
	</g>
</g>
</svg>